<svg width="72" height="31" viewBox="0 0 72 31" fill="none" xmlns="http://www.w3.org/2000/svg">
<path d="M11.5913 21.9142L0.0194287 16.6517V13.8138L11.5913 8.35851L12.6108 11.0311L2.93995 15.5496V14.8057L12.6383 19.1314L11.5913 21.9142ZM14.7026 0.926327L24.8968 0.754126V3.16494L21.8317 4.30146L22.3827 3.3027V21.3493C22.3827 22.7958 22.2679 24.0931 22.0383 25.2411C21.8087 26.3891 21.4184 27.3649 20.8673 28.1685C20.3163 28.9951 19.5701 29.615 18.6287 30.0283C17.7103 30.4645 16.5394 30.6826 15.1158 30.6826C14.7026 30.6826 14.2893 30.6597 13.876 30.6137C13.4398 30.5908 12.9806 30.5449 12.4984 30.476L12.9117 26.9631C13.1413 26.986 13.3479 27.009 13.5316 27.032C13.7153 27.0549 13.899 27.0664 14.0826 27.0664C15.3225 27.0664 16.195 26.6761 16.7001 25.8954C17.2052 25.1378 17.4578 23.9553 17.4578 22.3481V3.3027L18.0433 4.23258L14.7026 3.40602V0.926327ZM26.9242 25V22.5203L30.0927 21.6249L29.4728 22.5892V3.3027L30.3338 4.3359L26.9242 3.40602V0.926327L34.6044 0.754126H37.9451C40.7003 0.754126 42.7782 1.32813 44.1788 2.47613C45.5793 3.62414 46.2796 5.27727 46.2796 7.43552C46.2796 9.36417 45.6827 10.9599 44.4887 12.2227C43.3178 13.4855 41.4695 14.2547 38.9439 14.5302L38.9783 13.9791C39.8737 14.0021 40.6085 14.1399 41.1825 14.3924C41.7565 14.645 42.2272 15.0009 42.5945 15.4601C42.9848 15.8963 43.3407 16.4244 43.6622 17.0443L46.4174 22.3481L45.0053 21.4871L48.1738 22.5203V25H42.5256L39.426 18.353C39.0127 17.4806 38.6569 16.8147 38.3584 16.3555C38.0599 15.8734 37.6925 15.5519 37.2563 15.3912C36.82 15.2075 36.1886 15.1272 35.3621 15.1501H33.5712L34.3978 14.4613V22.5892L33.7434 21.5904L37.2219 22.5203V25H26.9242ZM34.3978 12.9459L33.5712 11.7405H36.4297C38.0369 11.7405 39.2423 11.4076 40.0459 10.7418C40.8495 10.0759 41.2513 9.08865 41.2513 7.77992C41.2513 6.67783 40.9299 5.81683 40.287 5.19691C39.6441 4.57698 38.6569 4.26702 37.3252 4.26702H33.5712L34.3978 3.50934V12.9459ZM58.2439 2.73788L51.1079 27.3419H48.4077L55.5162 2.73788H58.2439ZM60.4719 8.96466L71.8785 13.6485V16.4864L60.4444 21.3356L59.48 18.7457L68.9855 14.7782V15.4945L59.4525 11.8852L60.4719 8.96466Z" fill="black"/>
</svg>
